<svg width="45" height="36" viewBox="0 0 45 36" fill="none" xmlns="http://www.w3.org/2000/svg">
<path d="M40.8105 18.2649C40.7409 18.2813 40.6713 18.2895 40.5976 18.2895H23.5703C25.2984 16.2297 26.4287 13.6048 26.6826 10.7137C27.8988 10.382 29.2133 10.2018 30.5892 10.2018C36.1626 10.2018 40.7736 13.1707 41.5845 17.0651C41.7032 17.6097 41.3551 18.1503 40.8105 18.2649Z" stroke="white" stroke-width="2.4" stroke-linecap="round" stroke-linejoin="round"/>
<path d="M40.7001 26.0824V28.1054C40.7001 30.3372 38.8901 32.1513 36.6542 32.1513H24.5205C22.2887 32.1513 20.4746 30.3413 20.4746 28.1054V26.0824" stroke="white" stroke-width="2.4" stroke-linecap="round" stroke-linejoin="round"/>
<path d="M17.9473 27.0939L23.0047 25.0709L28.058 27.0939L33.1154 25.0709L38.1728 27.0939L43.2261 25.0709" stroke="white" stroke-width="2.4" stroke-linecap="round" stroke-linejoin="round"/>
<path d="M18.6719 21.8971H43.7336" stroke="white" stroke-width="2.4" stroke-linecap="round" stroke-linejoin="round"/>
<path d="M26.7347 9.48524C26.7347 9.89884 26.7184 10.3083 26.6815 10.7138C26.4276 13.6049 25.2974 16.2298 23.5693 18.2896C22.2466 19.8662 20.5717 21.1152 18.6798 21.8974C17.2301 22.4993 15.6494 22.8269 13.9991 22.8269C6.9679 22.8269 1.26758 16.8563 1.26758 9.48524C1.26758 6.58594 2.1603 3.91187 3.65909 1.71692H24.3432C25.842 3.91187 26.7347 6.58594 26.7347 9.48524Z" stroke="white" stroke-width="2.4" stroke-linecap="round" stroke-linejoin="round"/>
<path d="M5.51074 34.2849H13.9998H22.4888H13.9998V22.8269" stroke="white" stroke-width="2.4" stroke-linecap="round" stroke-linejoin="round"/>
<path d="M2.31152 7.31885H26.0956" stroke="white" stroke-width="2.4" stroke-miterlimit="10"/>
</svg>
