<svg width="589" height="509" viewBox="0 0 589 509" fill="none" xmlns="http://www.w3.org/2000/svg">
<path fill-rule="evenodd" clip-rule="evenodd" d="M589 509H0V0H589V509ZM402.579 22.5928C369.052 3.03596 329.128 -2.39889 291.594 7.48535L273.666 12.207L111.513 54.7344C26.8143 76.9481 -19.5405 168.081 12.3857 249.616L76.3418 412.952C103.447 482.174 178.149 520.07 250.016 501.055L311.954 484.666C326.037 480.94 339.484 475.131 351.852 467.433L494.696 378.513C514.846 365.969 531.643 348.713 543.637 328.23L567.067 288.217C607.949 218.4 584.411 128.657 514.526 87.8926L402.579 22.5928Z" fill="white"/>
</svg>
