<svg width="29" height="22" viewBox="0 0 29 22" fill="none" xmlns="http://www.w3.org/2000/svg">
<path d="M25.8433 11.1635C25.8002 11.1736 25.757 11.1787 25.7114 11.1787H15.1621C16.2328 9.90252 16.933 8.27624 17.0903 6.48504C17.8438 6.27954 18.6582 6.16791 19.5107 6.16791C22.9637 6.16791 25.8205 8.0073 26.3228 10.4201C26.3964 10.7575 26.1807 11.0924 25.8433 11.1635Z" stroke="#D6D6D6" stroke-width="1.8" stroke-linecap="round" stroke-linejoin="round"/>
<path d="M25.7749 16.0069V17.2602C25.7749 18.6429 24.6535 19.7669 23.2682 19.7669H15.7508C14.3681 19.7669 13.2441 18.6455 13.2441 17.2602V16.0069" stroke="#D6D6D6" stroke-width="1.8" stroke-linecap="round" stroke-linejoin="round"/>
<path d="M11.6787 16.6334L14.812 15.3801L17.9428 16.6334L21.0761 15.3801L24.2094 16.6334L27.3402 15.3801" stroke="#D6D6D6" stroke-width="1.8" stroke-linecap="round" stroke-linejoin="round"/>
<path d="M12.127 13.4138H27.654" stroke="#D6D6D6" stroke-width="1.8" stroke-linecap="round" stroke-linejoin="round"/>
<path d="M17.1229 5.72456C17.1229 5.9808 17.1128 6.23451 17.09 6.48568C16.9327 8.27688 16.2324 9.90316 15.1618 11.1793C14.3423 12.1561 13.3046 12.9299 12.1325 13.4145C11.2343 13.7875 10.255 13.9904 9.23256 13.9904C4.87637 13.9904 1.34473 10.2913 1.34473 5.72456C1.34473 3.92829 1.89781 2.27157 2.82639 0.911682H15.6413C16.5698 2.27157 17.1229 3.92829 17.1229 5.72456Z" stroke="#D6D6D6" stroke-width="1.8" stroke-linecap="round" stroke-linejoin="round"/>
<path d="M3.97363 21.0895H9.23304H14.4924H9.23304V13.9907" stroke="#D6D6D6" stroke-width="1.8" stroke-linecap="round" stroke-linejoin="round"/>
<path d="M1.99219 4.38214H16.7277" stroke="#D6D6D6" stroke-width="1.8" stroke-miterlimit="10"/>
</svg>
