<svg width="22" height="22" viewBox="0 0 22 22" fill="none" xmlns="http://www.w3.org/2000/svg">
<path d="M17.0762 5.5094V5.51038C17.4341 5.49723 17.7617 5.69639 17.9229 6.00647L17.9814 6.14709V6.14905L20.8652 15.4254C21.2756 16.7514 21.0382 18.1879 20.209 19.3024L20.21 19.3033C19.3961 20.4251 18.0928 21.0802 16.71 21.0651V21.066H5.26758C2.8734 21.066 0.936586 19.1301 0.936523 16.736C0.936523 16.3797 0.984597 16.0163 1.07129 15.6696L3.38965 6.20374C3.49068 5.78255 3.87405 5.50259 4.29883 5.51038V5.5094H17.0762ZM2.81152 16.108V16.109C2.47337 17.4626 3.29392 18.8301 4.64746 19.1686H4.64844C4.84025 19.2183 5.04126 19.2408 5.23633 19.2408H16.6787C17.4697 19.2408 18.2188 18.8588 18.6865 18.2184L18.6875 18.2174C19.1693 17.57 19.3062 16.7348 19.0684 15.9635L16.416 7.33557H4.98828L2.81152 16.108Z" fill="#D6D6D6" stroke="#D6D6D6" stroke-width="0.3"/>
<path d="M10.9736 0.933228C13.1617 0.933392 14.9375 2.70992 14.9375 4.89807V11.0006C14.9374 11.5029 14.5267 11.9137 14.0244 11.9137C13.5222 11.9136 13.1124 11.5028 13.1123 11.0006V4.89807C13.1123 3.71472 12.1569 2.75956 10.9736 2.7594C9.79018 2.7594 8.83496 3.71462 8.83496 4.89807V11.0006C8.83485 11.5029 8.42421 11.9137 7.92188 11.9137C7.41961 11.9136 7.0089 11.5029 7.00879 11.0006V4.89807C7.00879 2.70982 8.78538 0.933228 10.9736 0.933228Z" fill="#D6D6D6" stroke="#D6D6D6" stroke-width="0.3"/>
</svg>
