<svg width="24" height="24" viewBox="0 0 24 24" fill="none" xmlns="http://www.w3.org/2000/svg">
<path d="M12.002 22.8763V7.81689" stroke="black" stroke-width="1.8" stroke-linecap="round" stroke-linejoin="round"/>
<path d="M12.0021 14.5098L6.98145 11.9995" stroke="black" stroke-width="1.8" stroke-linecap="round" stroke-linejoin="round"/>
<path d="M12.002 11.9994L17.0226 9.49158" stroke="black" stroke-width="1.8" stroke-linecap="round" stroke-linejoin="round"/>
<path d="M12.4722 17.5637C15.5262 19.6446 19.6907 18.8544 21.7716 15.8004C23.8525 12.7463 23.0623 8.5819 20.0083 6.50096C19.683 6.27991 19.3375 6.08681 18.9767 5.9242C18.7912 5.83019 18.6438 5.6752 18.5574 5.48464C17.038 1.86396 12.8685 0.159072 9.24787 1.68102C7.53028 2.40262 6.16331 3.76704 5.44426 5.48464C5.36041 5.6752 5.21305 5.83019 5.02503 5.9242C1.65081 7.43599 0.141565 11.3946 1.65335 14.7688C3.16514 18.143 7.12375 19.6523 10.498 18.1405C10.8588 17.9804 11.2018 17.7873 11.5295 17.5637C11.8141 17.3757 12.1851 17.3757 12.4696 17.5637H12.4722Z" stroke="black" stroke-width="1.8" stroke-linecap="round" stroke-linejoin="round"/>
</svg>
