<svg width="22" height="22" viewBox="0 0 22 22" fill="none" xmlns="http://www.w3.org/2000/svg">
<path d="M17.8917 8.07315V1.44669C17.8917 1.20277 17.8688 1.12146 17.6249 1.12146H4.593C4.34908 1.12146 3.98828 1.20023 3.98828 1.44669V8.07315" stroke="#D6D6D6" stroke-width="1.8" stroke-linecap="round" stroke-linejoin="round"/>
<path d="M16.6517 9.41473H5.68551C3.65031 9.41473 1.79297 10.9113 1.79297 12.9465V18.2543C1.79297 18.4982 2.19696 18.8056 2.44088 18.8056H19.8938C20.1377 18.8056 20.2063 18.5007 20.2063 18.2543V12.9465C20.2063 10.9113 18.6869 9.41473 16.6517 9.41473Z" stroke="#D6D6D6" stroke-width="1.8" stroke-linecap="round" stroke-linejoin="round"/>
<path d="M20.2063 14.2473C20.2063 14.0034 20.0081 13.8052 19.7642 13.8052H2.23507C1.99115 13.8052 1.79297 14.0034 1.79297 14.2473V18.3635C1.79297 18.6074 1.99115 18.8056 2.23507 18.8056H19.7642C20.0081 18.8056 20.2063 18.6074 20.2063 18.3635V14.2473Z" stroke="#D6D6D6" stroke-width="1.8" stroke-linecap="round" stroke-linejoin="round"/>
<path d="M1.79297 16.4879V20.8785" stroke="#D6D6D6" stroke-width="1.8" stroke-linecap="round" stroke-linejoin="round"/>
<path d="M20.2061 16.4879V20.8785" stroke="#D6D6D6" stroke-width="1.8" stroke-linecap="round" stroke-linejoin="round"/>
<path d="M13.3718 8.06293C13.3718 6.96784 13.6055 5.81176 13.6055 5.81176C13.6055 5.61612 13.448 5.4408 13.2524 5.4408C13.2524 5.4408 12.1573 5.66694 11.08 5.66694C10.0026 5.66694 8.79067 5.4281 8.79067 5.4281C8.59503 5.4281 8.4375 5.58309 8.4375 5.77873C8.4375 5.77873 8.67126 6.89161 8.67126 8.06547" stroke="#D6D6D6" stroke-width="1.8" stroke-linecap="round" stroke-linejoin="round"/>
</svg>
