<svg width="30" height="22" viewBox="0 0 30 22" fill="none" xmlns="http://www.w3.org/2000/svg">
<path d="M26.3433 11.1635C26.3002 11.1736 26.257 11.1787 26.2114 11.1787H15.6621C16.7328 9.90252 17.433 8.27624 17.5903 6.48504C18.3438 6.27954 19.1582 6.16791 20.0107 6.16791C23.4637 6.16791 26.3205 8.0073 26.8228 10.4201C26.8964 10.7575 26.6807 11.0924 26.3433 11.1635Z" stroke="black" stroke-width="1.8" stroke-linecap="round" stroke-linejoin="round"/>
<path d="M26.2749 16.0069V17.2602C26.2749 18.6429 25.1535 19.7669 23.7682 19.7669H16.2508C14.8681 19.7669 13.7441 18.6455 13.7441 17.2602V16.0069" stroke="black" stroke-width="1.8" stroke-linecap="round" stroke-linejoin="round"/>
<path d="M12.1787 16.6334L15.312 15.3801L18.4428 16.6334L21.5761 15.3801L24.7094 16.6334L27.8402 15.3801" stroke="black" stroke-width="1.8" stroke-linecap="round" stroke-linejoin="round"/>
<path d="M12.627 13.4138H28.154" stroke="black" stroke-width="1.8" stroke-linecap="round" stroke-linejoin="round"/>
<path d="M17.6229 5.72456C17.6229 5.9808 17.6128 6.23451 17.59 6.48568C17.4327 8.27688 16.7324 9.90316 15.6618 11.1793C14.8423 12.1561 13.8046 12.9299 12.6325 13.4145C11.7343 13.7875 10.755 13.9904 9.73256 13.9904C5.37637 13.9904 1.84473 10.2913 1.84473 5.72456C1.84473 3.92829 2.39781 2.27157 3.32639 0.911682H16.1413C17.0698 2.27157 17.6229 3.92829 17.6229 5.72456Z" stroke="black" stroke-width="1.8" stroke-linecap="round" stroke-linejoin="round"/>
<path d="M4.47363 21.0895H9.73304H14.9924H9.73304V13.9907" stroke="black" stroke-width="1.8" stroke-linecap="round" stroke-linejoin="round"/>
<path d="M2.49219 4.38214H17.2277" stroke="black" stroke-width="1.8" stroke-miterlimit="10"/>
</svg>
