<svg width="26" height="24" viewBox="0 0 26 24" fill="none" xmlns="http://www.w3.org/2000/svg">
<path d="M22.2422 0.965271C22.9173 0.490457 23.8591 0.546292 24.4658 1.14691H24.4648C25.074 1.74933 25.1303 2.68317 24.6484 3.35297C23.1191 5.60602 20.0613 8.99994 17.3955 11.8207C16.0607 13.2331 14.821 14.506 13.915 15.4252C13.4622 15.8847 13.0923 16.2557 12.8359 16.5121C12.7077 16.6404 12.6079 16.7405 12.54 16.808C12.5063 16.8416 12.4803 16.8669 12.4629 16.8842L12.4365 16.9106L12.2959 17.0502L12.293 17.0473C11.7501 17.5454 11.0567 17.7787 10.3682 17.7631C10.5235 18.748 10.2382 19.7913 9.49121 20.5561C9.48906 20.5587 9.48639 20.5631 9.48242 20.5678C9.47441 20.5774 9.46242 20.5913 9.44727 20.6088C9.41675 20.6441 9.37256 20.6952 9.31445 20.7582C9.19786 20.8847 9.02666 21.0613 8.80859 21.2631C8.37312 21.6662 7.74495 22.1734 6.97852 22.5873C5.44114 23.4175 3.32796 23.8755 1.11426 22.3334L0.765625 22.0912L1.1748 21.977H1.17578C1.17653 21.9768 1.178 21.9765 1.17969 21.976C1.18327 21.975 1.18886 21.9734 1.19629 21.9711C1.21158 21.9665 1.23479 21.9586 1.26465 21.9487C1.32435 21.9288 1.41085 21.8983 1.51562 21.8559C1.726 21.7707 2.00749 21.6385 2.29395 21.4526C2.86625 21.0811 3.42841 20.5141 3.52637 19.6928C3.52435 19.677 3.52203 19.6557 3.51953 19.6293C3.51396 19.5703 3.50811 19.4854 3.50684 19.3793C3.50429 19.1671 3.51964 18.8675 3.58984 18.5131C3.73056 17.8029 4.09164 16.8739 4.9668 15.9838C5.70765 15.2304 6.71952 14.9315 7.68066 15.0717C7.67309 14.4006 7.90832 13.7266 8.40234 13.1977L8.40039 13.1957L8.54395 13.0532L8.57031 13.0268C8.58782 13.0095 8.61433 12.9842 8.64844 12.9506C8.71661 12.8835 8.81685 12.7844 8.94629 12.6577C9.20543 12.4039 9.58064 12.0376 10.0449 11.5893C10.9736 10.6925 12.2594 9.46519 13.6865 8.14398C16.3583 5.67046 19.5385 2.85613 21.8018 1.26703L22.2422 0.965271ZM7.23047 16.4213C6.81561 16.4213 6.42001 16.5661 6.10059 16.8334L5.96875 16.9555C4.73707 18.2082 4.92336 19.641 4.92676 19.6723L4.92969 19.6938L4.92676 19.7153C4.82805 20.6213 4.37858 21.4073 3.86035 21.9633C3.93221 21.9678 4.00429 21.9741 4.07715 21.9741C5.23057 21.9741 6.30897 21.411 7.11328 20.8276C7.51287 20.5377 7.8389 20.2465 8.06641 20.0268C8.18008 19.917 8.26956 19.8257 8.33008 19.7612C8.38782 19.6996 8.419 19.6629 8.42188 19.6596L8.4248 19.6567C8.42679 19.6543 8.43026 19.6503 8.43457 19.645C8.44321 19.6342 8.45622 19.617 8.47266 19.5952C8.50554 19.5514 8.55179 19.4866 8.60352 19.4047C8.70771 19.2397 8.83175 19.0089 8.91602 18.7416C9.08274 18.2126 9.09265 17.5546 8.4873 16.9545C8.14269 16.6131 7.70059 16.4215 7.23047 16.4213ZM10.2764 13.3452L9.48047 14.1245C9.23255 14.3694 9.10352 14.6959 9.10352 15.0493C9.1036 15.4028 9.233 15.7307 9.48145 15.976C9.73322 16.225 10.0832 16.3695 10.4385 16.3696C10.7904 16.3696 11.1095 16.2279 11.3545 15.9848L12.1484 15.1899L10.2812 13.3393C10.2794 13.3411 10.2781 13.3434 10.2764 13.3452ZM23.2471 2.06293C23.1851 2.06301 23.1214 2.08005 23.0381 2.1391L23.0332 2.14203C19.9263 4.20661 14.0702 9.70531 11.2871 12.3725L13.125 14.1948C15.818 11.4413 21.3859 5.63263 23.4873 2.53754L23.4902 2.53168C23.578 2.41091 23.5645 2.25217 23.4619 2.15082L23.4609 2.14984C23.3851 2.07492 23.2965 2.06293 23.2471 2.06293Z" fill="#D6D6D6" stroke="#D6D6D6" stroke-width="0.4"/>
</svg>
