<svg width="25" height="22" viewBox="0 0 25 22" fill="none" xmlns="http://www.w3.org/2000/svg">
<path d="M12.6113 17.7002C12.5409 17.9551 12.5 18.2227 12.5 18.5C12.5 18.851 12.5631 19.1869 12.6738 19.5H1.40039C0.903334 19.5 0.5 19.0967 0.5 18.5996C0.500211 18.1027 0.903465 17.7002 1.40039 17.7002H12.6113ZM23.5996 17.7002C24.0965 17.7002 24.4998 18.1027 24.5 18.5996C24.5 19.0967 24.0967 19.5 23.5996 19.5H18.3262C18.4369 19.1869 18.5 18.851 18.5 18.5C18.5 18.2227 18.4591 17.9551 18.3887 17.7002H23.5996Z" fill="black"/>
<circle cx="15.5" cy="18.5" r="2.1" stroke="black" stroke-width="1.8"/>
<path d="M12.3887 11.2998C12.4591 11.0449 12.5 10.7773 12.5 10.5C12.5 10.149 12.4369 9.81306 12.3262 9.5L23.5996 9.5C24.0967 9.5 24.5 9.90333 24.5 10.4004C24.4998 10.8973 24.0965 11.2998 23.5996 11.2998L12.3887 11.2998ZM1.40039 11.2998C0.903465 11.2998 0.500212 10.8973 0.5 10.4004C0.5 9.90333 0.903334 9.5 1.40039 9.5L6.67383 9.5C6.56306 9.81305 6.5 10.149 6.5 10.5C6.5 10.7773 6.54091 11.0449 6.61133 11.2998L1.40039 11.2998Z" fill="black"/>
<circle cx="9.5" cy="10.5" r="2.1" transform="rotate(-180 9.5 10.5)" stroke="black" stroke-width="1.8"/>
<circle cx="18.5" cy="3.5" r="2.1" transform="rotate(-180 18.5 3.5)" stroke="black" stroke-width="1.8"/>
<path d="M15.6113 2.7002C15.5409 2.95509 15.5 3.2227 15.5 3.5C15.5 3.851 15.5631 4.18694 15.6738 4.5H1.40039C0.903334 4.5 0.5 4.09667 0.5 3.59961C0.500211 3.10273 0.903465 2.7002 1.40039 2.7002H15.6113ZM23.5996 2.7002C24.0965 2.7002 24.4998 3.10273 24.5 3.59961C24.5 4.09667 24.0967 4.5 23.5996 4.5H21.3262C21.4369 4.18694 21.5 3.851 21.5 3.5C21.5 3.2227 21.4591 2.95509 21.3887 2.7002H23.5996Z" fill="black"/>
</svg>
