<svg width="18" height="29" viewBox="0 0 18 29" fill="none" xmlns="http://www.w3.org/2000/svg">
<path d="M10.6438 0.464844C12.0656 0.464844 13.2256 1.71579 13.2256 3.25952C13.2256 4.80325 12.0656 6.0542 10.6438 6.0542C9.22191 6.0542 8.06197 4.80325 8.06197 3.25952C8.06197 1.71579 9.22191 0.464844 10.6438 0.464844ZM11.3672 13.2671L11.4046 13.347C11.6665 14.0789 12.0781 14.6911 12.5645 15.1835C13.0759 15.7025 13.6871 16.0618 14.3232 16.3147H14.3481L16.6929 17.1664L17.5161 14.5314L15.2212 13.7063H15.1838C14.7971 13.52 14.5102 13.3337 14.2982 13.1207C14.0612 12.8945 13.8991 12.6416 13.7868 12.2823L13.7619 12.2424L13.0135 10.4858L12.9761 10.3926C12.3276 8.59602 10.7061 7.50477 8.98493 7.51808C8.61076 7.51808 8.23658 7.558 7.87488 7.65115H7.84994L5.11846 8.50287C3.9211 8.86218 2.96072 9.70058 2.32462 10.7519C1.55133 12.0162 0.516113 13.693 0.516113 13.693L2.66138 15.25C2.66138 15.25 3.6966 13.5732 4.46989 12.3223C4.86901 11.6968 5.20577 11.4173 5.81692 11.2177L7.17642 10.8051L6.24098 15.4629C5.97906 16.4344 6.36571 17.4192 6.88955 18.1112L10.5814 22.4629L10.7685 22.7291L12.7142 28.4648H15.4332C14.9218 27.0675 13.6247 23.5675 13.1009 21.8907L10.0825 17.1664L9.9952 16.7139L10.9057 12.2291L11.3672 13.307V13.2671ZM4.56967 23.1017L0.690728 28.4116H3.65918L6.62763 24.7785L7.66285 21.4249L5.71714 19.0428L4.5572 23.1017H4.56967Z" fill="black"/>
</svg>
