<svg width="407" height="472" viewBox="0 0 407 472" fill="none" xmlns="http://www.w3.org/2000/svg">
<path d="M407 472H0V0H407V472ZM252.691 12.2803C212.211 -5.76205 165.01 0.61721 130.771 28.7578L68.6758 79.7939C37.6466 105.297 22.0462 145.056 27.4531 184.854L27.7881 187.322C30.8507 209.865 26.7242 232.8 15.9961 252.861C-4.33702 290.884 -0.133008 337.354 26.6934 371.111L69.9004 425.481C95.3076 457.453 135.547 473.863 176.066 468.778L291.664 454.272C344.56 447.635 386.281 406.079 393.128 353.21L403.993 269.315C405.625 256.719 405.194 243.941 402.718 231.482L381.307 123.746C373.903 86.4919 348.875 55.1504 314.182 39.6875L252.691 12.2803Z" fill="white"/>
</svg>
