<svg width="15" height="20" viewBox="0 0 15 20" fill="none" xmlns="http://www.w3.org/2000/svg">
<path d="M7.57125 0C3.47188 0 0 3.49198 0 7.62774C0 11.9591 4.02438 16.3886 6.73125 19.5019C6.74188 19.5144 7.17938 20 7.71813 20H7.76562C8.305 20 8.73937 19.5144 8.75 19.5019C11.29 16.5818 15 11.766 15 7.62774C15 3.49136 12.2919 0 7.57125 0ZM7.82187 18.6631C7.8 18.685 7.76813 18.7093 7.74 18.73C7.71125 18.71 7.68 18.685 7.65687 18.6631L7.33 18.2868C4.76375 15.343 1.24938 11.311 1.24938 7.62711C1.24938 4.16951 4.14438 1.24879 7.57063 1.24879C11.8388 1.24879 13.7494 4.45201 13.7494 7.62711C13.7494 10.4235 11.755 14.1373 7.82187 18.6631ZM7.52187 3.78449C5.45125 3.78449 3.77187 5.4633 3.77187 7.53461C3.77187 9.60593 5.45125 11.2847 7.52187 11.2847C9.5925 11.2847 11.2719 9.6053 11.2719 7.53461C11.2719 5.46392 9.59312 3.78449 7.52187 3.78449ZM7.52187 10.0347C6.14312 10.0347 4.99312 8.8859 4.99312 7.50711C4.99312 6.12832 6.11437 5.00703 7.49312 5.00703C8.8725 5.00703 9.99312 6.12832 9.99312 7.50711C9.99375 8.8859 8.90125 10.0347 7.52187 10.0347Z" fill="white"/>
</svg>
